<svg width="20" height="20" viewBox="0 0 20 20" fill="none" xmlns="http://www.w3.org/2000/svg">
<path d="M9.99726 6.87579C8.27694 6.87579 6.87304 8.2797 6.87304 10C6.87304 11.7203 8.27694 13.1242 9.99726 13.1242C11.7176 13.1242 13.1215 11.7203 13.1215 10C13.1215 8.2797 11.7176 6.87579 9.99726 6.87579ZM19.3676 10C19.3676 8.70626 19.3793 7.42423 19.3066 6.13283C19.234 4.63283 18.8918 3.30158 17.7949 2.2047C16.6957 1.10548 15.3668 0.765639 13.8668 0.692982C12.573 0.620326 11.291 0.632045 9.9996 0.632045C8.70585 0.632045 7.42382 0.620326 6.13241 0.692982C4.63241 0.765639 3.30116 1.10783 2.20429 2.2047C1.10507 3.30392 0.765226 4.63283 0.69257 6.13283C0.619914 7.42658 0.631633 8.70861 0.631633 10C0.631633 11.2914 0.619914 12.5758 0.69257 13.8672C0.765226 15.3672 1.10741 16.6985 2.20429 17.7953C3.30351 18.8945 4.63241 19.2344 6.13241 19.307C7.42616 19.3797 8.70819 19.368 9.9996 19.368C11.2934 19.368 12.5754 19.3797 13.8668 19.307C15.3668 19.2344 16.698 18.8922 17.7949 17.7953C18.8941 16.6961 19.234 15.3672 19.3066 13.8672C19.3816 12.5758 19.3676 11.2938 19.3676 10ZM9.99726 14.807C7.3371 14.807 5.19023 12.6602 5.19023 10C5.19023 7.33986 7.3371 5.19298 9.99726 5.19298C12.6574 5.19298 14.8043 7.33986 14.8043 10C14.8043 12.6602 12.6574 14.807 9.99726 14.807ZM15.0012 6.11876C14.3801 6.11876 13.8785 5.6172 13.8785 4.99611C13.8785 4.37501 14.3801 3.87345 15.0012 3.87345C15.6223 3.87345 16.1238 4.37501 16.1238 4.99611C16.124 5.14359 16.0951 5.28966 16.0387 5.42595C15.9824 5.56224 15.8997 5.68607 15.7954 5.79036C15.6911 5.89464 15.5673 5.97733 15.431 6.03368C15.2947 6.09004 15.1486 6.11895 15.0012 6.11876Z" fill="#F1F1F1"/>
</svg>
