<svg width="104" height="28" viewBox="0 0 104 28" fill="none" xmlns="http://www.w3.org/2000/svg">
<path d="M28.2888 7.25118L31.2393 4.7028C31.6349 4.37841 32.0415 4.21622 32.459 4.21622C32.9206 4.21622 33.3189 4.38391 33.6541 4.71929C33.9947 5.05468 34.165 5.41481 34.165 5.79968V10.0387C34.165 10.8415 33.8216 11.5342 33.1348 12.117L32.2036 12.917L32.5579 13.7912H33.4892C33.6815 13.7912 33.8436 13.8599 33.9755 13.9974C34.1128 14.1293 34.1815 14.2915 34.1815 14.484C34.1815 14.6764 34.1128 14.8413 33.9755 14.9788C33.8436 15.1107 33.6815 15.1767 33.4892 15.1767H31.5937L31.091 13.8737L30.1432 14.6572C29.7256 15.0035 29.3053 15.1767 28.8822 15.1767C28.3987 15.1767 27.9921 15.0118 27.6625 14.6819C27.3383 14.3465 27.1762 13.9424 27.1762 13.4696V9.60163C27.1762 9.11779 27.2504 8.70269 27.3988 8.3563C27.5471 8.00442 27.8438 7.63605 28.2888 7.25118ZM32.1541 5.7172L29.2036 8.26558C28.9454 8.49101 28.7723 8.70543 28.6844 8.90887C28.602 9.1123 28.5608 9.40095 28.5608 9.77482V13.3871C28.5608 13.673 28.6707 13.8159 28.8905 13.8159C28.9784 13.8159 29.0635 13.7802 29.146 13.7087L30.547 12.5046L30.0937 11.2923C30.0278 11.1329 29.9948 10.9954 29.9948 10.8799C29.9948 10.7095 30.0635 10.5583 30.2009 10.4263C30.3382 10.2889 30.5003 10.2202 30.6871 10.2202C31.0113 10.2202 31.2256 10.3521 31.33 10.616L31.6843 11.548C32.0854 11.2346 32.3656 10.9762 32.525 10.7727C32.6843 10.5638 32.764 10.3191 32.764 10.0387V5.95637C32.764 5.72545 32.6596 5.60999 32.4508 5.60999C32.3354 5.60999 32.2365 5.64573 32.1541 5.7172Z" fill="#303030"/>
<path d="M40.6841 13.7747L43.0164 12.2902V7.91096C43.0164 7.71852 43.0824 7.55358 43.2142 7.41612C43.3516 7.27317 43.5164 7.2017 43.7087 7.2017C43.901 7.2017 44.0631 7.27317 44.195 7.41612C44.3323 7.55358 44.401 7.71852 44.401 7.91096V14.484C44.401 14.6709 44.3323 14.8331 44.195 14.9705C44.0576 15.108 43.8955 15.1767 43.7087 15.1767C43.5219 15.1767 43.3598 15.108 43.2225 14.9705C43.0851 14.8331 43.0164 14.6709 43.0164 14.484V13.9396L41.8132 14.7231C41.3406 15.0255 40.8626 15.1767 40.3791 15.1767H39.7363C39.1704 15.1767 38.6841 14.9788 38.2776 14.5829C37.871 14.1871 37.6539 13.7032 37.6265 13.1314L37.4287 7.91096C37.4177 7.72952 37.4809 7.57007 37.6182 7.43262C37.7611 7.28967 37.9287 7.21819 38.121 7.21819C38.3078 7.21819 38.4671 7.28692 38.599 7.42437C38.7363 7.56183 38.8078 7.72402 38.8133 7.91096L38.9946 13.0325C39.011 13.5273 39.294 13.7747 39.8434 13.7747H40.6841Z" fill="#303030"/>
<path d="M49.6591 10.1789H52.3705C52.5189 10.1789 52.7332 10.2119 53.0134 10.2779L52.9969 9.29648C52.9969 9.10405 52.9282 8.94185 52.7909 8.8099C52.659 8.67245 52.4969 8.60372 52.3046 8.60372H49.6756C49.4888 8.60372 49.3267 8.53499 49.1893 8.39754C49.052 8.26009 48.9833 8.09789 48.9833 7.91096C48.9833 7.71852 49.0492 7.55633 49.1811 7.42437C49.3184 7.28692 49.4833 7.21819 49.6756 7.21819H52.3046C52.876 7.21819 53.3623 7.41887 53.7634 7.82024C54.1699 8.2216 54.3815 8.71368 54.398 9.29648L54.571 14.484C54.571 14.6764 54.5023 14.8413 54.365 14.9788C54.2276 15.1107 54.0655 15.1767 53.8787 15.1767C53.6809 15.1767 53.5134 15.1107 53.376 14.9788C53.2386 14.8413 53.17 14.6764 53.17 14.484L51.9997 15.1767H49.6591C49.0767 15.1767 48.5822 14.9733 48.1756 14.5664C47.769 14.1596 47.5657 13.6647 47.5657 13.0819V12.2737C47.5657 11.6964 47.769 11.2043 48.1756 10.7975C48.5877 10.3851 49.0822 10.1789 49.6591 10.1789ZM53.1205 12.8758L53.0793 12.2902C53.0738 12.0923 53.0051 11.9273 52.8733 11.7954C52.7414 11.6634 52.5793 11.5974 52.387 11.5974H49.6591C49.4668 11.5974 49.302 11.6662 49.1646 11.8036C49.0327 11.9356 48.9668 12.0978 48.9668 12.2902V13.0654C48.9668 13.2524 49.0355 13.4146 49.1728 13.552C49.3102 13.6895 49.4723 13.7582 49.6591 13.7582H51.6123L53.1205 12.8758Z" fill="#303030"/>
<path d="M61.0736 8.82639L59.1863 10.0552V14.484C59.1863 14.6709 59.1176 14.8331 58.9802 14.9705C58.8429 15.108 58.6808 15.1767 58.494 15.1767C58.3072 15.1767 58.1451 15.108 58.0077 14.9705C57.8704 14.8331 57.8017 14.6709 57.8017 14.484V7.91096C57.8017 7.71852 57.8676 7.55358 57.9995 7.41612C58.1369 7.27317 58.3017 7.2017 58.494 7.2017C58.6808 7.2017 58.8429 7.27317 58.9802 7.41612C59.1176 7.55358 59.1863 7.71852 59.1863 7.91096V8.3728L60.4472 7.60581C60.8703 7.3364 61.3483 7.2017 61.8813 7.2017H62.5241C63.0735 7.2017 63.5488 7.39688 63.9499 7.78725C64.351 8.17761 64.5625 8.6587 64.5845 9.23051L64.774 14.484C64.7795 14.6709 64.7136 14.8331 64.5762 14.9705C64.4389 15.108 64.274 15.1767 64.0817 15.1767C63.9004 15.1767 63.7411 15.1162 63.6037 14.9953C63.4664 14.8688 63.3949 14.6984 63.3894 14.484L63.1834 9.31298C63.1669 8.82914 62.9142 8.58723 62.4252 8.58723H61.7494C61.5406 8.58723 61.3153 8.66695 61.0736 8.82639Z" fill="#303030"/>
<path d="M72.8672 15.1767H71.4826C70.9112 15.1767 70.4195 14.9733 70.0074 14.5664C69.5953 14.1596 69.3893 13.6702 69.3893 13.0984V8.60372H68.6805C68.4882 8.60372 68.3234 8.53774 68.186 8.40579C68.0541 8.27383 67.9882 8.10889 67.9882 7.91096C67.9882 7.71852 68.0541 7.55633 68.186 7.42437C68.3234 7.28692 68.4882 7.21819 68.6805 7.21819H69.4058V5.51927C69.4058 5.32684 69.4717 5.16464 69.6035 5.03269C69.7409 4.89524 69.9057 4.82651 70.098 4.82651C70.2794 4.82651 70.4387 4.89524 70.576 5.03269C70.7189 5.17014 70.7903 5.33234 70.7903 5.51927V7.21819H73.576C73.7628 7.21819 73.9248 7.28692 74.0622 7.42437C74.1996 7.56183 74.2682 7.72402 74.2682 7.91096C74.2682 8.10339 74.1996 8.26833 74.0622 8.40579C73.9248 8.53774 73.7628 8.60372 73.576 8.60372H70.7738V13.0984C70.7738 13.2854 70.8425 13.4476 70.9799 13.585C71.1227 13.7225 71.2903 13.7912 71.4826 13.7912H72.8342C73.2023 13.7912 73.4468 13.5933 73.5677 13.1974C73.6886 12.796 73.9221 12.5954 74.2682 12.5954C74.4715 12.5954 74.6364 12.6641 74.7627 12.8015C74.8946 12.9335 74.9605 13.1012 74.9605 13.3046C74.9605 13.7225 74.7627 14.1403 74.3671 14.5582C73.977 14.9705 73.4771 15.1767 72.8672 15.1767Z" fill="#303030"/>
<path d="M80.2681 10.1789H82.9795C83.1279 10.1789 83.3422 10.2119 83.6224 10.2779L83.6059 9.29648C83.6059 9.10405 83.5372 8.94185 83.3998 8.8099C83.268 8.67245 83.1059 8.60372 82.9136 8.60372H80.2845C80.0977 8.60372 79.9357 8.53499 79.7983 8.39754C79.6609 8.26009 79.5923 8.09789 79.5923 7.91096C79.5923 7.71852 79.6582 7.55633 79.7901 7.42437C79.9274 7.28692 80.0922 7.21819 80.2845 7.21819H82.9136C83.485 7.21819 83.9713 7.41887 84.3723 7.82024C84.7789 8.2216 84.9905 8.71368 85.0069 9.29648L85.18 14.484C85.18 14.6764 85.1113 14.8413 84.974 14.9788C84.8366 15.1107 84.6745 15.1767 84.4877 15.1767C84.2899 15.1767 84.1224 15.1107 83.985 14.9788C83.8476 14.8413 83.779 14.6764 83.779 14.484L82.6087 15.1767H80.2681C79.6857 15.1767 79.1912 14.9733 78.7846 14.5664C78.378 14.1596 78.1747 13.6647 78.1747 13.0819V12.2737C78.1747 11.6964 78.378 11.2043 78.7846 10.7975C79.1967 10.3851 79.6912 10.1789 80.2681 10.1789ZM83.7295 12.8758L83.6883 12.2902C83.6828 12.0923 83.6141 11.9273 83.4823 11.7954C83.3504 11.6634 83.1883 11.5974 82.996 11.5974H80.2681C80.0758 11.5974 79.9109 11.6662 79.7736 11.8036C79.6417 11.9356 79.5758 12.0978 79.5758 12.2902V13.0654C79.5758 13.2524 79.6445 13.4146 79.7818 13.552C79.9192 13.6895 80.0813 13.7582 80.2681 13.7582H82.2213L83.7295 12.8758Z" fill="#303030"/>
<path d="M49.4557 18.9018C49.4768 19.0153 49.4873 19.0984 49.4873 19.1512C49.4873 19.2119 49.4715 19.2594 49.4399 19.2937C49.4346 19.299 49.3832 19.3386 49.2856 19.4125C49.2065 19.4732 49.0904 19.4837 48.9375 19.4442C48.4496 19.3201 47.8931 19.2066 47.2681 19.1037C47.0887 19.8321 46.9569 20.381 46.8725 20.7505C47.1626 20.7268 47.6597 20.6964 48.3638 20.6595C48.5115 20.6568 48.6104 20.7056 48.6605 20.8059C48.6685 20.8218 48.6909 20.9115 48.7278 21.0751C48.7304 21.0962 48.7317 21.1147 48.7317 21.1305C48.7317 21.2203 48.6276 21.2823 48.4192 21.3166C48.1977 21.3562 48.0711 21.3443 48.0395 21.281C48.0025 21.2018 47.9313 21.1622 47.8258 21.1622C47.2404 21.1622 46.8817 21.1741 46.7498 21.1978L46.4334 22.1835C46.3411 22.4527 46.2593 22.6401 46.1881 22.7457C46.1195 22.8486 46.0074 22.9542 45.8518 23.0624C45.9441 23.0571 46.0444 23.0544 46.1525 23.0544C46.5876 23.0544 47.3076 23.0993 48.3124 23.189C48.3942 23.197 48.443 23.1574 48.4588 23.0703C48.4773 22.9805 48.5049 22.9344 48.5419 22.9317C48.6131 22.9264 48.6579 22.9555 48.6764 23.0188C48.7027 23.1323 48.7383 23.284 48.7832 23.4741C48.7964 23.5268 48.7726 23.5809 48.712 23.6364C48.6539 23.6812 48.5986 23.7261 48.5458 23.771C48.4931 23.8158 48.4456 23.8369 48.4034 23.8343C48.3929 23.8317 48.3164 23.8119 48.174 23.7749C47.6069 23.6218 46.9714 23.5453 46.2672 23.5453C45.9797 23.5453 45.6712 23.5572 45.3415 23.5809C45.12 23.7736 44.9815 23.8699 44.9261 23.8699C44.8813 23.8699 44.8523 23.8356 44.8391 23.767C44.789 23.5189 44.764 23.3804 44.764 23.3513C44.764 23.2511 44.8207 23.1838 44.9341 23.1494C45.0369 23.1178 45.2664 23.094 45.6224 23.0782C45.8993 22.5662 46.1129 22.0608 46.2633 21.562C46.2474 21.5145 46.2065 21.4195 46.1406 21.277C46.1011 21.182 46.0813 21.1134 46.0813 21.0712C46.0813 20.9709 46.1828 20.8957 46.3859 20.8455C46.4254 20.835 46.469 20.8244 46.5164 20.8138C46.6377 20.3494 46.7881 19.7556 46.9674 19.0325C46.5903 18.9665 46.3107 18.9335 46.1287 18.9335C46.0074 18.9335 45.8848 18.9414 45.7608 18.9572C45.4707 18.9995 45.3257 19.1934 45.3257 19.5392C45.3257 19.6949 45.3547 19.8875 45.4127 20.1171C45.4391 20.22 45.4167 20.2715 45.3455 20.2715C45.2954 20.2715 45.2611 20.2398 45.2426 20.1765C45.1319 19.8123 45.0765 19.5062 45.0765 19.2581C45.0765 19.0813 45.1028 18.9111 45.1556 18.7474C45.2321 18.5046 45.4602 18.3832 45.84 18.3832C46.1195 18.3832 46.5388 18.4373 47.098 18.5455C47.2351 18.4453 47.33 18.3951 47.3828 18.3951C47.4197 18.3951 47.4382 18.4189 47.4382 18.4664C47.4382 18.5007 47.4276 18.5482 47.4065 18.6089C47.512 18.6405 48.0329 18.7619 48.9691 18.9731C49.0904 19.0021 49.1854 18.9572 49.2539 18.8385C49.2829 18.7963 49.3159 18.7751 49.3528 18.7751C49.4056 18.7751 49.4399 18.8174 49.4557 18.9018Z" fill="#303030"/>
<path d="M51.8886 20.9761C51.7884 21.1002 51.5563 21.3324 51.1923 21.6729C50.8416 22.0001 50.6425 22.1954 50.595 22.2588C50.6609 22.5332 50.7638 22.8869 50.9036 23.3197C50.9537 23.4331 51.0104 23.4899 51.0737 23.4899C51.1132 23.4899 51.1831 23.4529 51.2833 23.379C51.3097 23.3579 51.3374 23.3474 51.3664 23.3474C51.4165 23.3474 51.4416 23.3711 51.4416 23.4186C51.4416 23.4424 51.4323 23.4661 51.4139 23.4899C51.1818 23.7538 50.9998 23.895 50.8679 23.9135C50.7203 23.9319 50.6095 23.8448 50.5357 23.6522C50.4249 23.3593 50.3181 23.0056 50.2152 22.5913C49.221 23.639 48.7093 24.4175 48.6803 24.9269C48.675 25.072 48.6975 25.1855 48.7476 25.2673C48.8082 25.3623 48.803 25.4098 48.7317 25.4098C48.7027 25.4098 48.6724 25.3914 48.6408 25.3544C48.5247 25.2198 48.4509 25.1195 48.4192 25.0536C48.3691 24.9559 48.3454 24.8319 48.348 24.6814C48.3533 24.465 48.5392 24.122 48.9058 23.6522C49.2407 23.2194 49.6495 22.776 50.1321 22.3221C49.9686 21.6702 49.8315 21.2678 49.7207 21.1147C49.6706 21.0487 49.6258 21.0157 49.5862 21.0157C49.5467 21.0157 49.4886 21.0434 49.4122 21.0989C49.3805 21.12 49.3515 21.1305 49.3251 21.1305C49.2856 21.1305 49.2658 21.1147 49.2658 21.083C49.2658 21.0487 49.2895 21.0131 49.337 20.9761C49.577 20.802 49.7563 20.6858 49.875 20.6278C49.962 20.5856 50.0174 20.5644 50.0412 20.5644C50.0965 20.5644 50.1401 20.6106 50.1717 20.703C50.2165 20.827 50.3352 21.2374 50.5277 21.9341C50.926 21.5251 51.1937 21.2361 51.3308 21.0672C51.5629 20.7822 51.6842 20.5552 51.6947 20.3863C51.7 20.2966 51.6895 20.22 51.6631 20.1567C51.6341 20.0907 51.6446 20.0577 51.6947 20.0577C51.7132 20.0577 51.733 20.0696 51.7541 20.0934C51.9413 20.3256 52.0349 20.5064 52.0349 20.6357C52.0349 20.7465 51.9862 20.86 51.8886 20.9761Z" fill="#303030"/>
<path d="M54.9702 21.3522C54.9386 21.7982 54.8212 22.2772 54.6182 22.7892C54.4283 23.2669 54.241 23.5928 54.0564 23.767C53.9509 23.8646 53.8441 23.9135 53.736 23.9135C53.6147 23.9135 53.4129 23.8158 53.1307 23.6205C53.0754 23.5836 53.0477 23.5453 53.0477 23.5057C53.0477 23.4556 53.0833 23.4305 53.1545 23.4305C53.1835 23.4305 53.2257 23.4397 53.2811 23.4582C53.3364 23.4767 53.3813 23.4859 53.4156 23.4859C53.6081 23.4859 53.7808 23.3632 53.9338 23.1178C54.063 22.9066 54.1857 22.6229 54.3017 22.2667C54.4415 21.8233 54.5021 21.4419 54.4837 21.1226C54.4758 20.9696 54.4243 20.893 54.3294 20.893C54.245 20.893 54.1421 20.9511 54.0208 21.0672C53.1663 21.8853 52.565 22.8631 52.2169 24.0006C52.0191 24.6471 51.8873 25.2462 51.8213 25.7978C51.8187 25.8163 51.7831 26.2741 51.7145 27.1714C51.704 27.3008 51.6723 27.3654 51.6196 27.3654C51.5642 27.3654 51.4653 27.3008 51.3229 27.1714C51.22 27.0764 51.1805 26.9603 51.2042 26.8231C51.3202 25.5088 51.638 24.0454 52.1576 22.4329C52.5664 21.1714 52.8907 20.3533 53.1307 19.9786C53.2732 19.7595 53.3997 19.6526 53.5105 19.6579C53.6213 19.6606 53.8323 19.7595 54.1435 19.9548C54.1857 19.9812 54.2068 20.0089 54.2068 20.0379C54.2068 20.0775 54.1751 20.0973 54.1118 20.0973C54.096 20.0973 54.0696 20.0947 54.0327 20.0894C53.9958 20.0815 53.9681 20.0775 53.9496 20.0775C53.7835 20.0775 53.6107 20.2187 53.4314 20.5011C53.3259 20.6621 53.1927 20.9326 53.0318 21.3126C52.871 21.6927 52.7549 22.0054 52.6837 22.2508C53.0714 21.6174 53.5224 21.0738 54.0366 20.6199C54.1158 20.5513 54.187 20.5169 54.2503 20.5169C54.2793 20.5169 54.3518 20.5565 54.4678 20.6357C54.8265 20.7624 54.994 21.0012 54.9702 21.3522Z" fill="#303030"/>
<path d="M58.4317 17.6469C58.466 17.6733 58.4831 17.701 58.4831 17.7301C58.4831 17.7802 58.4528 17.8053 58.3921 17.8053C58.3658 17.8053 58.3381 17.7974 58.309 17.7815C58.1877 17.7208 58.0967 17.6905 58.0361 17.6905C57.8699 17.6905 57.688 17.8515 57.4902 18.1734C56.7728 19.3425 56.2625 20.8534 55.9592 22.7061C55.9513 22.7562 55.9381 22.8235 55.9197 22.908C55.9803 22.8446 56.07 22.7417 56.1887 22.5992C56.2572 22.5174 56.3073 22.4765 56.339 22.4765C56.4076 22.4765 56.4128 22.5174 56.3548 22.5992C56.1016 22.9608 55.9342 23.3395 55.8524 23.7353C55.8234 23.833 55.7865 23.8818 55.7416 23.8818C55.7206 23.8818 55.6929 23.8699 55.6586 23.8462C55.5241 23.7564 55.4476 23.7037 55.4291 23.6878C55.3764 23.635 55.35 23.5664 55.35 23.482C55.35 23.4397 55.3566 23.3883 55.3698 23.3276C55.6757 21.6465 56.07 20.2148 56.5526 19.0325C56.9166 18.1404 57.2423 17.5625 57.5297 17.2986C57.6088 17.2247 57.688 17.189 57.7671 17.1917C57.8383 17.1943 57.9306 17.2392 58.044 17.3263C58.1732 17.4318 58.3025 17.5387 58.4317 17.6469Z" fill="#303030"/>
<path d="M59.3574 21.2849C59.3521 21.5198 59.2954 21.8312 59.1873 22.2192C59.0158 22.8314 58.7732 23.3065 58.4594 23.6443C58.2932 23.8237 58.1086 23.9135 57.9055 23.9135C57.8264 23.9135 57.7249 23.8963 57.6009 23.862C57.353 23.8462 57.1513 23.7683 56.9957 23.6284C56.8269 23.4754 56.7478 23.2788 56.7583 23.0386C56.7689 22.7589 56.8651 22.3683 57.0471 21.8668C57.2475 21.3206 57.4559 20.9273 57.6721 20.6872C57.775 20.571 57.8594 20.513 57.9253 20.513C58.015 20.513 58.16 20.6054 58.3605 20.7901C58.4159 20.7637 58.5293 20.7149 58.7007 20.6436C58.7877 20.6146 58.8536 20.6001 58.8985 20.6001C59.0013 20.6001 59.1161 20.6964 59.2426 20.8891C59.3244 21.0078 59.3626 21.1398 59.3574 21.2849ZM58.9024 21.3997C58.9209 21.2229 58.9301 21.1107 58.9301 21.0632C58.9301 20.9524 58.8958 20.897 58.8273 20.897C58.8009 20.897 58.7666 20.9023 58.7244 20.9128L58.1113 21.1622C58.04 21.1912 57.9992 21.2058 57.9886 21.2058C57.9675 21.2058 57.9464 21.1807 57.9253 21.1305C57.7724 21.3179 57.6299 21.5884 57.4981 21.9421C57.3952 22.2192 57.324 22.4672 57.2845 22.6863C57.2555 22.8341 57.2409 22.9687 57.2409 23.0901C57.2409 23.4965 57.3662 23.6944 57.6168 23.6839C57.717 23.6812 57.8251 23.6416 57.9411 23.5651C58.1627 23.4147 58.3697 23.1138 58.5622 22.6625C58.7468 22.2376 58.8602 21.8167 58.9024 21.3997Z" fill="#303030"/>
<path d="M62.1423 20.8138C62.1423 21.1596 62.0962 21.4895 62.0039 21.8035C61.9749 21.8985 61.9353 21.946 61.8852 21.946C61.8483 21.946 61.7665 21.8932 61.6399 21.7877C61.5766 21.7349 61.5608 21.6597 61.5925 21.562C61.6663 21.3219 61.7032 21.1292 61.7032 20.9841C61.7032 20.9339 61.6927 20.9089 61.6716 20.9089C61.6399 20.9089 61.5885 20.9564 61.5173 21.0514C60.9688 21.7666 60.5587 22.5688 60.287 23.4582C60.2 23.7406 60.1261 23.8818 60.0655 23.8818C60.0417 23.8818 59.9376 23.8356 59.753 23.7432C59.6633 23.6984 59.633 23.6113 59.662 23.482C59.8703 22.5688 60.0945 21.7982 60.3345 21.1701C60.1393 21.376 60.0154 21.5172 59.9626 21.5937C59.9415 21.6254 59.9125 21.6412 59.8756 21.6412C59.8308 21.6412 59.8083 21.6214 59.8083 21.5818C59.8083 21.5581 59.8189 21.5317 59.84 21.5026C59.9692 21.3469 60.142 21.1094 60.3582 20.7901C60.4242 20.674 60.4901 20.6159 60.556 20.6159C60.6035 20.6159 60.6997 20.6529 60.8448 20.7268C60.9266 20.769 60.9397 20.8257 60.8844 20.897C60.8263 20.9735 60.7169 21.244 60.556 21.7085C60.4031 22.1598 60.2976 22.5134 60.2395 22.7694C60.5982 21.9698 61.0057 21.2638 61.4619 20.6515C61.549 20.5354 61.6188 20.4774 61.6716 20.4774C61.7191 20.4774 61.7837 20.509 61.8654 20.5724C61.9762 20.5856 62.0461 20.6027 62.0751 20.6238C62.1199 20.6555 62.1423 20.7188 62.1423 20.8138Z" fill="#303030"/>
<path d="M63.8632 19.365C63.9054 19.3966 63.9265 19.4323 63.9265 19.4719C63.9265 19.5484 63.8131 19.6672 63.5863 19.8281C63.4359 19.9311 63.2909 19.968 63.1511 19.939C63.072 19.9231 63.0034 19.8941 62.9454 19.8519C62.9269 19.8361 62.9124 19.8202 62.9019 19.8044C62.894 19.7859 62.8926 19.7714 62.8979 19.7608C62.9058 19.7503 62.9217 19.7476 62.9454 19.7529C63.188 19.5418 63.3476 19.39 63.4241 19.2977C63.4847 19.2291 63.5282 19.1948 63.5546 19.1948C63.6021 19.1948 63.7049 19.2515 63.8632 19.365ZM63.3054 21.0989C63.2421 21.4551 63.0773 22.0476 62.8109 22.8763C62.8874 22.8077 62.9929 22.6823 63.1274 22.5002C63.1458 22.4765 63.1643 22.4646 63.1828 22.4646C63.2249 22.4646 63.2302 22.5015 63.1986 22.5754C63.1854 22.6045 63.0746 22.7853 62.8663 23.1178C62.708 23.3711 62.592 23.5955 62.5182 23.7907C62.4944 23.8514 62.4509 23.8818 62.3876 23.8818C62.3243 23.8818 62.2386 23.8514 62.1305 23.7907C62.0619 23.7538 62.0276 23.7261 62.0276 23.7076C62.0276 23.6918 62.0421 23.6575 62.0711 23.6047C62.2135 23.354 62.3718 22.9344 62.5458 22.3458C62.712 21.7758 62.8056 21.3522 62.8267 21.0751C62.8346 20.9564 62.8228 20.897 62.7911 20.897C62.7674 20.897 62.7252 20.926 62.6645 20.9841L62.4193 21.2137C62.3322 21.2928 62.2887 21.2968 62.2887 21.2255C62.2887 21.2044 62.3006 21.178 62.3243 21.1464C62.4483 20.9722 62.5801 20.8072 62.7199 20.6515C62.7621 20.6067 62.803 20.5842 62.8425 20.5842C62.8847 20.5842 62.9467 20.6133 63.0285 20.6713C63.1498 20.703 63.217 20.7228 63.2302 20.7307C63.2909 20.7677 63.3212 20.8363 63.3212 20.9366C63.3212 20.9841 63.3159 21.0382 63.3054 21.0989Z" fill="#303030"/>
<path d="M66.7352 22.3815C66.5769 22.6216 66.3712 22.97 66.118 23.4266C66.0706 23.5453 66.0244 23.6641 65.9796 23.7828C65.9427 23.8646 65.8939 23.9055 65.8332 23.9055C65.7857 23.9055 65.7159 23.8858 65.6236 23.8462C65.5207 23.8039 65.4693 23.7617 65.4693 23.7195C65.4693 23.701 65.4864 23.6601 65.5207 23.5968C65.6921 23.2484 65.8451 22.8143 65.9796 22.2944C66.1246 21.7481 66.1866 21.3311 66.1655 21.0434C66.1602 20.9273 66.1339 20.8693 66.0864 20.8693C66.0521 20.8693 66.0007 20.9023 65.9321 20.9682C65.2675 21.6174 64.6926 22.4857 64.2073 23.573C64.1467 23.7076 64.0755 23.7749 63.9937 23.7749C63.9357 23.7749 63.8394 23.7419 63.7049 23.6759C63.6522 23.6522 63.6245 23.6298 63.6219 23.6086C63.6219 23.5981 63.6364 23.5611 63.6654 23.4978C63.8183 23.1626 63.97 22.7377 64.1203 22.2231C64.2812 21.6663 64.3722 21.2321 64.3933 20.9207C64.3985 20.8257 64.3959 20.7782 64.3854 20.7782C64.3827 20.7782 64.3458 20.8138 64.2746 20.8851C64.2034 20.9564 64.1045 21.0487 63.9779 21.1622C63.9542 21.186 63.9278 21.1978 63.8988 21.1978C63.8618 21.1978 63.8434 21.1833 63.8434 21.1543C63.8434 21.1332 63.8566 21.1094 63.883 21.083C63.9964 20.9379 64.1454 20.7571 64.33 20.5407C64.3695 20.4958 64.4104 20.4734 64.4526 20.4734C64.5159 20.4734 64.5713 20.5196 64.6188 20.612C64.8324 20.6753 64.9326 20.7729 64.9194 20.9049C64.8904 21.1952 64.7414 21.7191 64.4724 22.4765C64.6491 22.136 64.9062 21.756 65.2438 21.3364C65.5814 20.9141 65.8319 20.6647 65.9954 20.5882C66.0772 20.5513 66.1352 20.5328 66.1695 20.5328C66.2038 20.5328 66.2591 20.5618 66.3356 20.6199C66.5545 20.6964 66.6626 20.8231 66.66 20.9999C66.66 21.1846 66.6152 21.4815 66.5255 21.8906C66.4543 22.2284 66.3884 22.491 66.3277 22.6784C66.4042 22.5807 66.5018 22.454 66.6205 22.2983C66.6415 22.2719 66.6626 22.2588 66.6837 22.2588C66.7233 22.2588 66.7431 22.2838 66.7431 22.334C66.7431 22.3498 66.7404 22.3656 66.7352 22.3815Z" fill="#303030"/>
<path d="M69.9157 20.992C69.1061 25.1961 68.0538 27.2968 66.7589 27.2942C66.2921 27.2942 65.7871 27.0368 65.2438 26.5222C65.1937 26.4747 65.1686 26.4259 65.1686 26.3757C65.1686 26.2992 65.2042 26.2609 65.2754 26.2609C65.3124 26.2609 65.348 26.2755 65.3822 26.3045C65.8121 26.6713 66.1972 26.8547 66.5374 26.8547C67.6239 26.8547 68.5298 25.2581 69.2551 22.0648C68.8147 22.8222 68.4309 23.3645 68.1039 23.6918C67.9721 23.8264 67.8547 23.8937 67.7518 23.8937C67.6569 23.8937 67.5395 23.8409 67.3998 23.7353C67.1492 23.6113 67.0292 23.4081 67.0398 23.1257C67.0556 22.78 67.1888 22.3511 67.4393 21.8391C67.6846 21.3403 67.9404 20.9643 68.2068 20.7109C68.3571 20.5684 68.4929 20.4972 68.6142 20.4972C68.7039 20.4972 68.8028 20.5367 68.9109 20.6159C68.9268 20.6291 69.0322 20.7228 69.2274 20.897C69.267 20.9313 69.2867 20.9656 69.2867 20.9999C69.2867 21.0474 69.2551 21.0712 69.1918 21.0712C69.1522 21.0712 69.1074 21.0593 69.0573 21.0355C68.9782 20.9933 68.9004 20.9722 68.8239 20.9722C68.7131 20.9722 68.6129 21.0118 68.5233 21.0909C68.3307 21.2599 68.129 21.5343 67.918 21.9143C67.6885 22.3313 67.5475 22.7114 67.4947 23.0544C67.4815 23.1468 67.4749 23.2273 67.4749 23.2959C67.4749 23.4912 67.5277 23.5889 67.6332 23.5889C67.7044 23.5889 67.7795 23.5532 67.8587 23.482C68.1725 23.2128 68.4837 22.8235 68.7923 22.3142C69.0797 21.8444 69.2841 21.4129 69.4054 21.0197C69.4503 20.8798 69.4727 20.7465 69.4727 20.6199C69.4727 20.5196 69.4964 20.4694 69.5439 20.4694C69.594 20.4694 69.6916 20.5249 69.8366 20.6357C69.9237 20.7017 69.95 20.8204 69.9157 20.992Z" fill="#303030"/>
<path d="M75.0505 19.7371C74.9582 20.5051 74.7156 21.3601 74.3226 22.3023C73.8611 23.4134 73.4141 23.9715 72.9816 23.9768C72.7205 23.9794 72.4027 23.8396 72.0282 23.5572C71.9992 23.5334 71.9847 23.5031 71.9847 23.4661C71.9847 23.3738 72.0269 23.3276 72.1113 23.3276C72.1324 23.3276 72.1535 23.3329 72.1746 23.3434C72.4014 23.4595 72.5952 23.5189 72.7561 23.5216C73.1069 23.5321 73.4932 23.0109 73.9152 21.9579C74.3187 20.9418 74.5349 20.0313 74.564 19.2264C74.5719 18.9652 74.4426 18.8345 74.1763 18.8345C74.1341 18.8345 74.0879 18.8385 74.0378 18.8464C73.8321 18.8754 73.5987 19.0391 73.3376 19.3373C73.0475 19.6698 72.8431 20.0485 72.7244 20.4734C72.7086 20.5288 72.7007 20.5816 72.7007 20.6317C72.7007 20.7294 72.7337 20.8191 72.7996 20.9009C72.8603 20.9616 72.9209 21.0223 72.9816 21.083C73.0106 21.1121 73.0251 21.1385 73.0251 21.1622C73.0251 21.2123 72.9855 21.2374 72.9064 21.2374C72.8748 21.2374 72.8484 21.2321 72.8273 21.2216C72.6005 21.087 72.4449 20.9775 72.3605 20.893C72.2603 20.7901 72.2102 20.6727 72.2102 20.5407C72.2102 20.4167 72.2576 20.2464 72.3526 20.03C72.4897 19.7107 72.6941 19.398 72.9658 19.0918C73.2242 18.7989 73.4563 18.6089 73.662 18.5218C73.7569 18.4796 73.9521 18.5033 74.2475 18.593C74.2659 18.5693 74.2936 18.5574 74.3306 18.5574C74.4334 18.5574 74.6352 18.6564 74.9358 18.8543C75.0703 18.9414 75.1086 19.2357 75.0505 19.7371Z" fill="#303030"/>
<path d="M79.9005 22.5279C79.7291 22.7839 79.4733 23.2352 79.1331 23.8818C79.1014 23.9399 79.0816 23.9702 79.0737 23.9728C79.05 23.986 78.9946 23.9794 78.9076 23.9531C78.7256 23.8976 78.6346 23.8448 78.6346 23.7947C78.6346 23.7657 78.6465 23.7235 78.6702 23.668C78.868 23.2062 79.0368 22.714 79.1766 22.1915C79.319 21.6663 79.3876 21.2638 79.3823 20.9841C79.3823 20.8917 79.3493 20.8455 79.2834 20.8455C79.2385 20.8455 79.1858 20.8706 79.1251 20.9207C78.901 21.1028 78.6109 21.4565 78.2548 21.9816C77.8276 22.615 77.5256 23.2075 77.3489 23.7591C77.3305 23.8224 77.3146 23.858 77.3015 23.866C77.2856 23.8739 77.2474 23.8673 77.1867 23.8462C77.0971 23.8145 77.0114 23.7696 76.9296 23.7116C76.89 23.6825 76.8703 23.6522 76.8703 23.6205C76.8703 23.6152 76.89 23.5638 76.9296 23.4661C77.2751 22.6005 77.4478 21.7626 77.4478 20.9524C77.4478 20.8706 77.4241 20.8297 77.3766 20.8297C77.3423 20.8297 77.2988 20.8521 77.2461 20.897C76.9639 21.1345 76.65 21.5436 76.3046 22.1242C75.9723 22.6784 75.7244 23.1983 75.5608 23.6839C75.5187 23.8079 75.4751 23.8699 75.4303 23.8699C75.3776 23.8699 75.2694 23.8105 75.1059 23.6918C75.0637 23.668 75.0426 23.643 75.0426 23.6166C75.0426 23.5875 75.0716 23.5427 75.1297 23.482C75.2378 23.2524 75.3604 22.8565 75.4976 22.2944C75.6532 21.6531 75.7204 21.1873 75.6993 20.897C75.6597 20.9366 75.5925 21.0025 75.4976 21.0949C75.4026 21.1846 75.3314 21.2533 75.2839 21.3008C75.2496 21.3351 75.2193 21.3522 75.1929 21.3522C75.1534 21.3522 75.1336 21.3258 75.1336 21.273C75.1336 21.2308 75.1481 21.1939 75.1771 21.1622C75.3248 21.0091 75.4712 20.8284 75.6162 20.6199C75.669 20.546 75.7151 20.509 75.7547 20.509C75.7837 20.509 75.8404 20.5513 75.9248 20.6357C75.9907 20.6595 76.0567 20.6832 76.1226 20.707C76.178 20.7334 76.2057 20.7822 76.2057 20.8534C76.2057 20.8745 76.203 20.897 76.1977 20.9207C76.1318 21.4301 76.0303 21.9051 75.8931 22.3458C76.3599 21.5066 76.7938 20.9102 77.1946 20.5565C77.25 20.5064 77.3041 20.4813 77.3568 20.4813C77.4122 20.4813 77.4966 20.5169 77.61 20.5882C77.7181 20.6357 77.7894 20.6779 77.8236 20.7149C77.8632 20.7624 77.883 20.8363 77.883 20.9366C77.883 21.4749 77.821 21.9539 77.6971 22.3736C78.2113 21.5581 78.6794 20.9524 79.1014 20.5565C79.1568 20.5037 79.2148 20.4774 79.2755 20.4774C79.3546 20.4774 79.4522 20.5301 79.5682 20.6357C79.7739 20.6674 79.8715 20.7927 79.8609 21.0118C79.8293 21.6478 79.6921 22.2627 79.4495 22.8565C79.5814 22.7008 79.6842 22.5662 79.7581 22.4527C79.7924 22.3973 79.8319 22.3696 79.8768 22.3696C79.9163 22.3696 79.9361 22.3907 79.9361 22.4329C79.9361 22.4593 79.9242 22.491 79.9005 22.5279Z" fill="#303030"/>
<path d="M83.0731 21.1543C82.8305 21.8273 82.6631 22.392 82.5708 22.8486C82.6103 22.8116 82.6617 22.7549 82.725 22.6784C82.791 22.6018 82.8318 22.557 82.8477 22.5438C82.8846 22.4963 82.9241 22.4725 82.9663 22.4725C83.0059 22.4725 83.0257 22.4923 83.0257 22.5319C83.0257 22.5557 83.0151 22.5834 82.994 22.615C82.7461 22.9819 82.5813 23.3527 82.4995 23.7274C82.4758 23.833 82.4402 23.8858 82.3927 23.8858C82.3479 23.8858 82.2648 23.8435 82.1435 23.7591C82.0723 23.7116 82.0314 23.672 82.0209 23.6403C82.0077 23.6113 82.0077 23.5532 82.0209 23.4661C82.1316 22.7958 82.2701 22.239 82.4362 21.7956C82.2068 22.1677 81.8943 22.5794 81.4987 23.0307C81.1532 23.4239 80.904 23.6746 80.751 23.7828C80.6403 23.8594 80.5559 23.8976 80.4978 23.8976C80.4504 23.8976 80.3778 23.8594 80.2803 23.7828C80.1405 23.6984 80.0706 23.5823 80.0706 23.4345C80.0706 23.4054 80.0732 23.3724 80.0785 23.3355C80.126 22.9449 80.2974 22.491 80.5928 21.9737C80.8882 21.4538 81.2271 21.0157 81.6095 20.6595C81.7334 20.5433 81.8442 20.4866 81.9418 20.4892C82.0367 20.4945 82.2174 20.6199 82.4837 20.8653C82.5075 20.8864 82.5193 20.9089 82.5193 20.9326C82.5193 20.9748 82.4916 20.9959 82.4362 20.9959C82.4151 20.9959 82.3954 20.992 82.3769 20.9841C82.1897 20.9049 82.0393 20.9075 81.9259 20.992C81.678 21.1741 81.4038 21.4947 81.1031 21.9539C80.755 22.4818 80.5453 22.9568 80.4741 23.379C80.4715 23.3975 80.4701 23.4147 80.4701 23.4305C80.4701 23.4965 80.4965 23.5295 80.5493 23.5295C80.6389 23.5295 80.7457 23.4675 80.8697 23.3434C81.1651 23.0558 81.4815 22.6942 81.8191 22.2588C82.1646 21.8075 82.3861 21.467 82.4837 21.2374C82.5549 21.0685 82.6011 20.9498 82.6222 20.8811C82.6565 20.7624 82.6934 20.703 82.7329 20.703C82.7725 20.703 82.8648 20.7571 83.0099 20.8653C83.0705 20.9102 83.1035 20.9511 83.1088 20.988C83.114 21.0197 83.1022 21.0751 83.0731 21.1543Z" fill="#303030"/>
<path d="M86.2537 20.992C85.4441 25.1961 84.3918 27.2968 83.0969 27.2942C82.6301 27.2942 82.125 27.0368 81.5818 26.5222C81.5317 26.4747 81.5066 26.4259 81.5066 26.3757C81.5066 26.2992 81.5422 26.2609 81.6134 26.2609C81.6503 26.2609 81.6859 26.2755 81.7202 26.3045C82.1501 26.6713 82.5351 26.8547 82.8754 26.8547C83.9619 26.8547 84.8678 25.2581 85.5931 22.0648C85.1526 22.8222 84.7689 23.3645 84.4419 23.6918C84.31 23.8264 84.1927 23.8937 84.0898 23.8937C83.9949 23.8937 83.8775 23.8409 83.7377 23.7353C83.4872 23.6113 83.3672 23.4081 83.3778 23.1257C83.3936 22.78 83.5268 22.3511 83.7773 21.8391C84.0226 21.3403 84.2784 20.9643 84.5448 20.7109C84.6951 20.5684 84.8309 20.4972 84.9522 20.4972C85.0419 20.4972 85.1408 20.5367 85.2489 20.6159C85.2647 20.6291 85.3702 20.7228 85.5654 20.897C85.6049 20.9313 85.6247 20.9656 85.6247 20.9999C85.6247 21.0474 85.5931 21.0712 85.5298 21.0712C85.4902 21.0712 85.4454 21.0593 85.3953 21.0355C85.3162 20.9933 85.2384 20.9722 85.1619 20.9722C85.0511 20.9722 84.9509 21.0118 84.8612 21.0909C84.6687 21.2599 84.467 21.5343 84.256 21.9143C84.0265 22.3313 83.8854 22.7114 83.8327 23.0544C83.8195 23.1468 83.8129 23.2273 83.8129 23.2959C83.8129 23.4912 83.8657 23.5889 83.9712 23.5889C84.0424 23.5889 84.1175 23.5532 84.1966 23.482C84.5105 23.2128 84.8217 22.8235 85.1302 22.3142C85.4177 21.8444 85.6221 21.4129 85.7434 21.0197C85.7882 20.8798 85.8107 20.7465 85.8107 20.6199C85.8107 20.5196 85.8344 20.4694 85.8819 20.4694C85.932 20.4694 86.0295 20.5249 86.1746 20.6357C86.2616 20.7017 86.288 20.8204 86.2537 20.992Z" fill="#303030"/>
<path d="M88.295 19.365C88.3372 19.3966 88.3583 19.4323 88.3583 19.4719C88.3583 19.5484 88.2449 19.6672 88.0181 19.8281C87.8677 19.9311 87.7227 19.968 87.5829 19.939C87.5038 19.9231 87.4352 19.8941 87.3772 19.8519C87.3587 19.8361 87.3442 19.8202 87.3337 19.8044C87.3258 19.7859 87.3245 19.7714 87.3297 19.7608C87.3376 19.7503 87.3535 19.7476 87.3772 19.7529C87.6198 19.5418 87.7794 19.39 87.8559 19.2977C87.9165 19.2291 87.96 19.1948 87.9864 19.1948C88.0339 19.1948 88.1367 19.2515 88.295 19.365ZM87.7372 21.0989C87.6739 21.4551 87.5091 22.0476 87.2427 22.8763C87.3192 22.8077 87.4247 22.6823 87.5592 22.5002C87.5776 22.4765 87.5961 22.4646 87.6146 22.4646C87.6568 22.4646 87.662 22.5015 87.6304 22.5754C87.6172 22.6045 87.5064 22.7853 87.2981 23.1178C87.1398 23.3711 87.0238 23.5955 86.95 23.7907C86.9262 23.8514 86.8827 23.8818 86.8194 23.8818C86.7561 23.8818 86.6704 23.8514 86.5623 23.7907C86.4937 23.7538 86.4594 23.7261 86.4594 23.7076C86.4594 23.6918 86.4739 23.6575 86.5029 23.6047C86.6454 23.354 86.8036 22.9344 86.9777 22.3458C87.1438 21.7758 87.2374 21.3522 87.2585 21.0751C87.2664 20.9564 87.2546 20.897 87.2229 20.897C87.1992 20.897 87.157 20.926 87.0963 20.9841L86.8511 21.2137C86.764 21.2928 86.7205 21.2968 86.7205 21.2255C86.7205 21.2044 86.7324 21.178 86.7561 21.1464C86.8801 20.9722 87.0119 20.8072 87.1517 20.6515C87.1939 20.6067 87.2348 20.5842 87.2743 20.5842C87.3165 20.5842 87.3785 20.6133 87.4603 20.6713C87.5816 20.703 87.6488 20.7228 87.662 20.7307C87.7227 20.7677 87.753 20.8363 87.753 20.9366C87.753 20.9841 87.7477 21.0382 87.7372 21.0989Z" fill="#303030"/>
<path d="M91.167 22.3815C91.0087 22.6216 90.803 22.97 90.5499 23.4266C90.5024 23.5453 90.4562 23.6641 90.4114 23.7828C90.3745 23.8646 90.3257 23.9055 90.265 23.9055C90.2176 23.9055 90.1477 23.8858 90.0554 23.8462C89.9525 23.8039 89.9011 23.7617 89.9011 23.7195C89.9011 23.701 89.9182 23.6601 89.9525 23.5968C90.1239 23.2484 90.2769 22.8143 90.4114 22.2944C90.5564 21.7481 90.6184 21.3311 90.5973 21.0434C90.5921 20.9273 90.5657 20.8693 90.5182 20.8693C90.4839 20.8693 90.4325 20.9023 90.3639 20.9682C89.6993 21.6174 89.1244 22.4857 88.6391 23.573C88.5785 23.7076 88.5073 23.7749 88.4255 23.7749C88.3675 23.7749 88.2712 23.7419 88.1367 23.6759C88.084 23.6522 88.0563 23.6298 88.0537 23.6086C88.0537 23.5981 88.0682 23.5611 88.0972 23.4978C88.2501 23.1626 88.4018 22.7377 88.5521 22.2231C88.713 21.6663 88.804 21.2321 88.8251 20.9207C88.8303 20.8257 88.8277 20.7782 88.8172 20.7782C88.8145 20.7782 88.7776 20.8138 88.7064 20.8851C88.6352 20.9564 88.5363 21.0487 88.4097 21.1622C88.386 21.186 88.3596 21.1978 88.3306 21.1978C88.2937 21.1978 88.2752 21.1833 88.2752 21.1543C88.2752 21.1332 88.2884 21.1094 88.3148 21.083C88.4282 20.9379 88.5772 20.7571 88.7618 20.5407C88.8013 20.4958 88.8422 20.4734 88.8844 20.4734C88.9477 20.4734 89.0031 20.5196 89.0506 20.612C89.2642 20.6753 89.3644 20.7729 89.3512 20.9049C89.3222 21.1952 89.1732 21.7191 88.9042 22.4765C89.0809 22.136 89.338 21.756 89.6756 21.3364C90.0132 20.9141 90.2637 20.6647 90.4272 20.5882C90.509 20.5513 90.567 20.5328 90.6013 20.5328C90.6356 20.5328 90.691 20.5618 90.7674 20.6199C90.9863 20.6964 91.0945 20.8231 91.0918 20.9999C91.0918 21.1846 91.047 21.4815 90.9573 21.8906C90.8861 22.2284 90.8202 22.491 90.7595 22.6784C90.836 22.5807 90.9336 22.454 91.0523 22.2983C91.0734 22.2719 91.0945 22.2588 91.1156 22.2588C91.1551 22.2588 91.1749 22.2838 91.1749 22.334C91.1749 22.3498 91.1723 22.3656 91.167 22.3815Z" fill="#303030"/>
<path d="M94.3238 21.1543C94.0812 21.8273 93.9137 22.392 93.8214 22.8486C93.861 22.8116 93.9124 22.7549 93.9757 22.6784C94.0416 22.6018 94.0825 22.557 94.0983 22.5438C94.1352 22.4963 94.1748 22.4725 94.217 22.4725C94.2566 22.4725 94.2763 22.4923 94.2763 22.5319C94.2763 22.5557 94.2658 22.5834 94.2447 22.615C93.9968 22.9819 93.832 23.3527 93.7502 23.7274C93.7265 23.833 93.6909 23.8858 93.6434 23.8858C93.5986 23.8858 93.5155 23.8435 93.3942 23.7591C93.323 23.7116 93.2821 23.672 93.2715 23.6403C93.2583 23.6113 93.2583 23.5532 93.2715 23.4661C93.3823 22.7958 93.5208 22.239 93.6869 21.7956C93.4575 22.1677 93.1449 22.5794 92.7494 23.0307C92.4039 23.4239 92.1546 23.6746 92.0017 23.7828C91.8909 23.8594 91.8065 23.8976 91.7485 23.8976C91.701 23.8976 91.6285 23.8594 91.5309 23.7828C91.3911 23.6984 91.3213 23.5823 91.3213 23.4345C91.3213 23.4054 91.3239 23.3724 91.3292 23.3355C91.3766 22.9449 91.5481 22.491 91.8434 21.9737C92.1388 21.4538 92.4777 21.0157 92.8601 20.6595C92.9841 20.5433 93.0948 20.4866 93.1924 20.4892C93.2874 20.4945 93.468 20.6199 93.7344 20.8653C93.7581 20.8864 93.77 20.9089 93.77 20.9326C93.77 20.9748 93.7423 20.9959 93.6869 20.9959C93.6658 20.9959 93.646 20.992 93.6276 20.9841C93.4403 20.9049 93.29 20.9075 93.1766 20.992C92.9287 21.1741 92.6544 21.4947 92.3538 21.9539C92.0056 22.4818 91.796 22.9568 91.7248 23.379C91.7221 23.3975 91.7208 23.4147 91.7208 23.4305C91.7208 23.4965 91.7472 23.5295 91.7999 23.5295C91.8896 23.5295 91.9964 23.4675 92.1204 23.3434C92.4157 23.0558 92.7322 22.6942 93.0698 22.2588C93.4153 21.8075 93.6368 21.467 93.7344 21.2374C93.8056 21.0685 93.8517 20.9498 93.8728 20.8811C93.9071 20.7624 93.944 20.703 93.9836 20.703C94.0232 20.703 94.1155 20.7571 94.2605 20.8653C94.3212 20.9102 94.3541 20.9511 94.3594 20.988C94.3647 21.0197 94.3528 21.0751 94.3238 21.1543Z" fill="#303030"/>
<path d="M96.9624 18.7395C97.0363 18.7791 97.0732 18.824 97.0732 18.8741C97.0732 18.9084 97.0481 18.9256 96.998 18.9256C96.9875 18.9256 96.9703 18.9242 96.9466 18.9216C96.9255 18.9163 96.9097 18.9137 96.8991 18.9137C96.7989 18.9137 96.6776 19.0232 96.5352 19.2423C96.4086 19.4376 96.2332 19.8624 96.009 20.5169C95.9879 20.575 95.98 20.6093 95.9853 20.6199C95.9932 20.6383 96.0275 20.6489 96.0882 20.6515C96.2438 20.6647 96.4521 20.6595 96.7132 20.6357C96.8029 20.6278 96.8477 20.6661 96.8477 20.7505C96.8477 20.8086 96.8134 20.8442 96.7448 20.8574C96.6895 20.8653 96.398 20.8891 95.8706 20.9286C95.5541 21.855 95.3616 22.6388 95.293 23.2801C95.2904 23.3144 95.2891 23.3447 95.2891 23.3711C95.2891 23.4609 95.3115 23.5057 95.3563 23.5057C95.4275 23.5057 95.6424 23.3329 96.0011 22.9871C96.0433 22.9449 96.0842 22.9238 96.1238 22.9238C96.158 22.9238 96.1791 22.9383 96.1871 22.9673C96.195 22.999 96.1831 23.036 96.1514 23.0782C95.9378 23.3606 95.7282 23.6007 95.5225 23.7987C95.4354 23.8805 95.3629 23.9214 95.3049 23.9214C95.2469 23.9214 95.1572 23.8752 95.0359 23.7828C94.8856 23.7432 94.8104 23.6641 94.8104 23.5453C94.8104 23.5268 94.813 23.5057 94.8183 23.482C94.9159 22.8011 95.1071 21.9632 95.3919 20.9682C95.2521 20.9498 95.1255 20.9313 95.0121 20.9128C94.962 20.9049 94.937 20.8732 94.937 20.8178C94.937 20.7571 94.9634 20.7202 95.0161 20.707C95.0688 20.6938 95.1664 20.6647 95.3088 20.6199C95.3959 20.5908 95.4803 20.5513 95.562 20.5011C95.8442 19.6276 96.0657 19.0615 96.2266 18.8028C96.3189 18.6551 96.4178 18.5812 96.5233 18.5812C96.6235 18.5812 96.7699 18.6339 96.9624 18.7395Z" fill="#303030"/>
<path d="M98.2956 19.365C98.3378 19.3966 98.3589 19.4323 98.3589 19.4719C98.3589 19.5484 98.2455 19.6672 98.0186 19.8281C97.8683 19.9311 97.7233 19.968 97.5835 19.939C97.5044 19.9231 97.4358 19.8941 97.3778 19.8519C97.3593 19.8361 97.3448 19.8202 97.3343 19.8044C97.3264 19.7859 97.325 19.7714 97.3303 19.7608C97.3382 19.7503 97.3541 19.7476 97.3778 19.7529C97.6204 19.5418 97.78 19.39 97.8564 19.2977C97.9171 19.2291 97.9606 19.1948 97.987 19.1948C98.0345 19.1948 98.1373 19.2515 98.2956 19.365ZM97.7378 21.0989C97.6745 21.4551 97.5096 22.0476 97.2433 22.8763C97.3198 22.8077 97.4253 22.6823 97.5598 22.5002C97.5782 22.4765 97.5967 22.4646 97.6151 22.4646C97.6573 22.4646 97.6626 22.5015 97.631 22.5754C97.6178 22.6045 97.507 22.7853 97.2987 23.1178C97.1404 23.3711 97.0244 23.5955 96.9505 23.7907C96.9268 23.8514 96.8833 23.8818 96.82 23.8818C96.7567 23.8818 96.671 23.8514 96.5629 23.7907C96.4943 23.7538 96.46 23.7261 96.46 23.7076C96.46 23.6918 96.4745 23.6575 96.5035 23.6047C96.6459 23.354 96.8042 22.9344 96.9782 22.3458C97.1444 21.7758 97.238 21.3522 97.2591 21.0751C97.267 20.9564 97.2552 20.897 97.2235 20.897C97.1998 20.897 97.1576 20.926 97.0969 20.9841L96.8516 21.2137C96.7646 21.2928 96.7211 21.2968 96.7211 21.2255C96.7211 21.2044 96.733 21.178 96.7567 21.1464C96.8807 20.9722 97.0125 20.8072 97.1523 20.6515C97.1945 20.6067 97.2354 20.5842 97.2749 20.5842C97.3171 20.5842 97.3791 20.6133 97.4609 20.6713C97.5822 20.703 97.6494 20.7228 97.6626 20.7307C97.7233 20.7677 97.7536 20.8363 97.7536 20.9366C97.7536 20.9841 97.7483 21.0382 97.7378 21.0989Z" fill="#303030"/>
<path d="M100.705 21.2849C100.699 21.5198 100.643 21.8312 100.535 22.2192C100.363 22.8314 100.121 23.3065 99.8067 23.6443C99.6406 23.8237 99.456 23.9135 99.2529 23.9135C99.1738 23.9135 99.0722 23.8963 98.9483 23.862C98.7004 23.8462 98.4986 23.7683 98.343 23.6284C98.1742 23.4754 98.0951 23.2788 98.1057 23.0386C98.1162 22.7589 98.2125 22.3683 98.3945 21.8668C98.5949 21.3206 98.8032 20.9273 99.0195 20.6872C99.1223 20.571 99.2067 20.513 99.2727 20.513C99.3623 20.513 99.5074 20.6054 99.7078 20.7901C99.7632 20.7637 99.8766 20.7149 100.048 20.6436C100.135 20.6146 100.201 20.6001 100.246 20.6001C100.349 20.6001 100.463 20.6964 100.59 20.8891C100.672 21.0078 100.71 21.1398 100.705 21.2849ZM100.25 21.3997C100.268 21.2229 100.277 21.1107 100.277 21.0632C100.277 20.9524 100.243 20.897 100.175 20.897C100.148 20.897 100.114 20.9023 100.072 20.9128L99.4586 21.1622C99.3874 21.1912 99.3465 21.2058 99.336 21.2058C99.3149 21.2058 99.2938 21.1807 99.2727 21.1305C99.1197 21.3179 98.9773 21.5884 98.8454 21.9421C98.7426 22.2192 98.6714 22.4672 98.6318 22.6863C98.6028 22.8341 98.5883 22.9687 98.5883 23.0901C98.5883 23.4965 98.7136 23.6944 98.9641 23.6839C99.0643 23.6812 99.1725 23.6416 99.2885 23.5651C99.51 23.4147 99.7171 23.1138 99.9096 22.6625C100.094 22.2376 100.208 21.8167 100.25 21.3997Z" fill="#303030"/>
<path d="M103.992 22.3815C103.834 22.6216 103.628 22.97 103.375 23.4266C103.327 23.5453 103.281 23.6641 103.237 23.7828C103.2 23.8646 103.151 23.9055 103.09 23.9055C103.043 23.9055 102.973 23.8858 102.88 23.8462C102.778 23.8039 102.726 23.7617 102.726 23.7195C102.726 23.701 102.743 23.6601 102.778 23.5968C102.949 23.2484 103.102 22.8143 103.237 22.2944C103.382 21.7481 103.444 21.3311 103.422 21.0434C103.417 20.9273 103.391 20.8693 103.343 20.8693C103.309 20.8693 103.258 20.9023 103.189 20.9682C102.524 21.6174 101.95 22.4857 101.464 23.573C101.404 23.7076 101.332 23.7749 101.251 23.7749C101.193 23.7749 101.096 23.7419 100.962 23.6759C100.909 23.6522 100.881 23.6298 100.879 23.6086C100.879 23.5981 100.893 23.5611 100.922 23.4978C101.075 23.1626 101.227 22.7377 101.377 22.2231C101.538 21.6663 101.629 21.2321 101.65 20.9207C101.655 20.8257 101.653 20.7782 101.642 20.7782C101.64 20.7782 101.603 20.8138 101.532 20.8851C101.46 20.9564 101.361 21.0487 101.235 21.1622C101.211 21.186 101.185 21.1978 101.156 21.1978C101.119 21.1978 101.1 21.1833 101.1 21.1543C101.1 21.1332 101.113 21.1094 101.14 21.083C101.253 20.9379 101.402 20.7571 101.587 20.5407C101.626 20.4958 101.667 20.4734 101.71 20.4734C101.773 20.4734 101.828 20.5196 101.876 20.612C102.089 20.6753 102.19 20.7729 102.176 20.9049C102.147 21.1952 101.998 21.7191 101.729 22.4765C101.906 22.136 102.163 21.756 102.501 21.3364C102.838 20.9141 103.089 20.6647 103.252 20.5882C103.334 20.5513 103.392 20.5328 103.426 20.5328C103.461 20.5328 103.516 20.5618 103.593 20.6199C103.811 20.6964 103.92 20.8231 103.917 20.9999C103.917 21.1846 103.872 21.4815 103.782 21.8906C103.711 22.2284 103.645 22.491 103.585 22.6784C103.661 22.5807 103.759 22.454 103.877 22.2983C103.898 22.2719 103.92 22.2588 103.941 22.2588C103.98 22.2588 104 22.2838 104 22.334C104 22.3498 103.997 22.3656 103.992 22.3815Z" fill="#303030"/>
<path fill-rule="evenodd" clip-rule="evenodd" d="M12.2125 10.6784L11.0323 11.6978C10.8543 11.8517 10.7356 11.9991 10.6763 12.1398C10.617 12.2784 10.5873 12.4444 10.5873 12.638V14.1851C10.5873 14.3743 10.6521 14.5359 10.7818 14.6701C10.9137 14.802 11.0763 14.868 11.2697 14.868C11.4389 14.868 11.607 14.7987 11.7741 14.6602L12.1532 14.3468L12.3543 14.868H13.1125C13.1894 14.868 13.2543 14.8416 13.307 14.7888C13.3619 14.7339 13.3894 14.6679 13.3894 14.5909C13.3894 14.5139 13.3619 14.4491 13.307 14.3963C13.2543 14.3413 13.1894 14.3138 13.1125 14.3138H12.74L12.5982 13.9641L12.9707 13.6441C13.2455 13.411 13.3828 13.1339 13.3828 12.8128V11.1172C13.3828 10.9632 13.3147 10.8192 13.1784 10.685C13.0444 10.5509 12.885 10.4838 12.7004 10.4838C12.5334 10.4838 12.3708 10.5487 12.2125 10.6784ZM11.3983 12.1036L12.5784 11.0842C12.6114 11.0556 12.651 11.0413 12.6971 11.0413C12.7806 11.0413 12.8224 11.0875 12.8224 11.1799V12.8128C12.8224 12.925 12.7905 13.0228 12.7268 13.1064C12.6631 13.1878 12.551 13.2911 12.3905 13.4165L12.2488 13.0437C12.207 12.9382 12.1213 12.8854 11.9917 12.8854C11.9169 12.8854 11.8521 12.9129 11.7972 12.9679C11.7422 13.0206 11.7147 13.0811 11.7147 13.1493C11.7147 13.1955 11.7279 13.2505 11.7543 13.3142L11.9356 13.7992L11.3752 14.2808C11.3422 14.3094 11.3082 14.3237 11.273 14.3237C11.1851 14.3237 11.1411 14.2665 11.1411 14.1522V12.7072C11.1411 12.5577 11.1576 12.4422 11.1906 12.3609C11.2257 12.2795 11.295 12.1937 11.3983 12.1036Z" fill="#303030"/>
<path fill-rule="evenodd" clip-rule="evenodd" d="M15.1004 20.234C14.7368 21.7947 14.26 23.0684 13.709 23.9298C13.7609 24.0957 13.7889 24.2721 13.7889 24.4551C13.7889 25.4242 13.0038 26.2098 12.0354 26.2098C11.067 26.2098 10.2819 25.4242 10.2819 24.4551C10.2819 24.2721 10.3099 24.0957 10.3618 23.9298C9.81541 23.0756 9.34198 21.8161 8.97958 20.2733C6.40923 21.8571 4.28899 22.4176 3.41125 21.5393C2.52134 20.6488 3.10947 18.4802 4.74273 15.86C1.857 15.1601 0 14.066 0 12.8365C0 11.6125 1.84018 10.5228 4.7035 9.82256C3.89555 8.51651 3.34959 7.32497 3.11968 6.35114C2.28362 6.2176 1.64473 5.49269 1.64473 4.61845C1.64473 3.64935 2.4298 2.86374 3.39823 2.86374C4.07544 2.86374 4.66298 3.2479 4.95511 3.81033C6.01172 3.92013 7.41863 4.5089 8.99381 5.48117C9.69226 2.5455 10.7948 0.651123 12.0354 0.651123C13.2815 0.651123 14.3883 2.56241 15.0863 5.52044C16.6489 4.5485 18.0493 3.95059 19.1111 3.81913C19.4017 3.25191 19.9918 2.86374 20.6726 2.86374C21.641 2.86374 22.4261 3.64935 22.4261 4.61845C22.4261 5.46603 21.8255 6.17324 21.027 6.33729C20.8033 7.29559 20.2719 8.46608 19.4848 9.74981C22.5231 10.446 24.4956 11.5693 24.4956 12.8365C24.4956 14.1091 22.5061 15.2367 19.4455 15.9321C21.0447 18.52 21.6139 20.657 20.7322 21.5393C19.8473 22.4249 17.6993 21.8478 15.1004 20.234ZM15.1833 12.9073C15.1833 13.3471 15.1759 13.781 15.1616 14.2077C14.8825 14.5055 14.5943 14.8033 14.2976 15.1003C13.9992 15.3988 13.6999 15.6887 13.4007 15.9695C13.0216 15.9808 12.637 15.9865 12.2478 15.9865C11.7328 15.9865 11.226 15.9764 10.7293 15.9569C10.4346 15.6801 10.1398 15.3944 9.84586 15.1003C9.52236 14.7765 9.20906 14.4518 8.90655 14.1272C8.89399 13.7264 8.88753 13.3195 8.88753 12.9073C8.88753 12.4707 8.89478 12.0399 8.90886 11.6161C9.21065 11.2923 9.52319 10.9683 9.84586 10.6454C10.1667 10.3244 10.4886 10.0134 10.8103 9.71299C11.2811 9.69549 11.7608 9.68646 12.2478 9.68646C12.6096 9.68646 12.9674 9.69145 13.3206 9.70118C13.6465 10.0052 13.9726 10.3202 14.2976 10.6454C14.5935 10.9415 14.8808 11.2385 15.1592 11.5354C15.1751 11.9851 15.1833 12.4429 15.1833 12.9073ZM14.775 15.578C14.8889 15.464 15.0016 15.3498 15.1131 15.2355C15.0998 15.4536 15.0847 15.6694 15.0677 15.8828C14.8553 15.8987 14.6406 15.9129 14.4237 15.9253C14.5409 15.8108 14.6581 15.695 14.775 15.578ZM15.8271 14.4841C15.8088 14.9393 15.7828 15.3867 15.7494 15.8249C16.6672 15.7378 17.5358 15.6176 18.3407 15.4692C17.8874 14.8008 17.3691 14.1063 16.7924 13.3995C16.4841 13.76 16.162 14.1221 15.8271 14.4841ZM13.6758 16.6364C14.1275 16.62 14.5716 16.596 15.0069 16.5647C14.9165 17.4743 14.7935 18.3343 14.6429 19.1301C13.9821 18.6803 13.2961 18.1671 12.598 17.5968C12.9562 17.29 13.316 16.9696 13.6758 16.6364ZM15.6907 16.5089C15.5874 17.5875 15.439 18.6026 15.2524 19.5318C15.7178 19.828 16.1679 20.09 16.5976 20.3154C17.5918 20.837 18.442 21.1439 19.1001 21.2431C19.7745 21.3449 20.1044 21.2121 20.2548 21.0616C20.4052 20.9111 20.538 20.5809 20.4363 19.906C20.3371 19.2475 20.0304 18.3967 19.5092 17.4018C19.2879 16.9795 19.0314 16.5376 18.7419 16.0807C17.8027 16.2645 16.778 16.4096 15.6907 16.5089ZM12.0717 18.0388C12.8997 18.7203 13.7147 19.3262 14.4963 19.8456C14.3753 20.3923 14.2406 20.903 14.0942 21.3725C13.8568 22.1334 13.5944 22.7665 13.3208 23.2616C13.0006 22.9164 12.5432 22.7004 12.0354 22.7004C11.5276 22.7004 11.0702 22.9164 10.75 23.2616C10.4764 22.7665 10.2139 22.1334 9.9766 21.3725C9.83392 20.9151 9.70242 20.4184 9.58385 19.8876C10.3847 19.3589 11.2214 18.7388 12.0717 18.0388ZM11.5455 17.5968C10.8247 18.1856 10.1168 18.7136 9.43623 19.1738C9.27997 18.3561 9.15294 17.47 9.06061 16.5313C9.51431 16.5694 9.97842 16.5996 10.4513 16.6213C10.8166 16.9599 11.1818 17.2853 11.5455 17.5968ZM8.8266 19.5726C8.63377 18.6204 8.48105 17.577 8.37613 16.4671C7.32785 16.358 6.34255 16.206 5.44174 16.0176C5.13573 16.4969 4.86571 16.9601 4.6343 17.4018C4.11311 18.3967 3.80641 19.2475 3.70719 19.906C3.60551 20.5809 3.73823 20.9111 3.88865 21.0616C4.03906 21.2121 4.36896 21.3449 5.04342 21.2431C5.7015 21.1439 6.55167 20.837 7.54588 20.3154C7.95571 20.1004 8.38406 19.8521 8.8266 19.5726ZM5.84325 15.4098C6.61045 15.5612 7.43987 15.6867 8.31809 15.7815C8.28431 15.3308 8.25829 14.8704 8.24052 14.4019C7.93275 14.0672 7.63602 13.7326 7.35103 13.3995C6.79147 14.0854 6.28687 14.7597 5.84325 15.4098ZM9.69585 15.9019C9.46123 15.886 9.22931 15.8681 9.00031 15.8481C8.98246 15.62 8.96662 15.3892 8.95288 15.1559C9.08955 15.2968 9.22809 15.4375 9.36846 15.578C9.47745 15.6871 9.58659 15.795 9.69585 15.9019ZM7.54587 5.4303C7.95955 5.64731 8.39209 5.89825 8.83906 6.18097C8.64872 7.10868 8.49663 8.1242 8.38996 9.20449C7.32065 9.31525 6.31671 9.47079 5.40093 9.664C5.11167 9.20748 4.85536 8.76587 4.6343 8.34388C4.23316 7.57816 3.95908 6.89782 3.80886 6.32478C4.5792 6.13982 5.15173 5.44604 5.15173 4.61845C5.15173 4.58541 5.15082 4.55257 5.14902 4.51997C5.79147 4.63477 6.60405 4.93623 7.54587 5.4303ZM9.44797 6.57982C9.29435 7.37301 9.16833 8.2314 9.07497 9.14046C9.55053 9.10073 10.0375 9.06972 10.534 9.04801C10.8717 8.7368 11.2093 8.43686 11.5455 8.1489C10.8288 7.56346 10.1249 7.03813 9.44797 6.57982ZM5.79966 10.2719C6.5822 10.1159 7.43012 9.98701 8.32909 9.89028C8.29173 10.3634 8.26295 10.8475 8.24332 11.3408C7.93455 11.6765 7.63688 12.0121 7.35103 12.3463C6.77307 11.6378 6.25372 10.9417 5.79966 10.2719ZM9.01178 9.82391C8.99114 10.0744 8.97294 10.3283 8.95728 10.5853C9.09253 10.4459 9.2296 10.3067 9.36846 10.1677C9.50405 10.032 9.63989 9.89805 9.77588 9.76581C9.51786 9.78264 9.26306 9.80204 9.01178 9.82391ZM7.78953 12.8729C7.92867 12.7091 8.07081 12.5449 8.21586 12.3804C8.21355 12.5551 8.21239 12.7308 8.21239 12.9073C8.21239 13.0604 8.21326 13.2127 8.215 13.3644C8.07024 13.2002 7.9284 13.0363 7.78953 12.8729ZM9.9766 4.44219C9.83932 4.8823 9.71238 5.35876 9.59735 5.86707C10.3941 6.39376 11.2261 7.01088 12.0717 7.70695C12.895 7.02927 13.7054 6.42643 14.4829 5.90901C14.3654 5.38495 14.2352 4.89439 14.0942 4.44219C13.7597 3.3699 13.3754 2.5513 12.9802 2.01545C12.5752 1.46626 12.2481 1.32673 12.0354 1.32673C11.8227 1.32673 11.4956 1.46626 11.0905 2.01545C10.6954 2.5513 10.3111 3.3699 9.9766 4.44219ZM12.598 8.1489C13.292 7.58197 13.9741 7.0714 14.6312 6.62348C14.7792 7.39479 14.9011 8.22714 14.9924 9.10728C14.5355 9.0746 14.0688 9.04991 13.5939 9.0337C13.2614 8.7276 12.929 8.43244 12.598 8.1489ZM14.3444 9.74329C14.5843 9.75645 14.8217 9.77183 15.0561 9.78934C15.0758 10.0251 15.0933 10.2639 15.1086 10.5055C14.9986 10.3928 14.8874 10.2802 14.775 10.1677C14.6317 10.0243 14.4881 9.88283 14.3444 9.74329ZM15.7383 9.84701C15.7752 10.3076 15.804 10.7786 15.8241 11.2584C16.1601 11.6215 16.4832 11.9847 16.7924 12.3463C17.3877 11.6166 17.9208 10.9001 18.3844 10.2118C17.564 10.0592 16.6768 9.93576 15.7383 9.84701ZM16.3539 12.8729C16.1913 12.6814 16.0245 12.4893 15.8537 12.2968C15.8568 12.4991 15.8584 12.7026 15.8584 12.9073C15.8584 13.0884 15.8572 13.2686 15.8548 13.4478C16.0251 13.2556 16.1916 13.0639 16.3539 12.8729ZM15.2401 6.22182C15.4241 7.12649 15.5718 8.11388 15.6767 9.1628C16.785 9.26356 17.8284 9.41192 18.7827 9.60033C19.0556 9.1664 19.2984 8.74622 19.5092 8.34388C19.9068 7.58485 20.1796 6.90971 20.3306 6.33982C19.5259 6.18065 18.9191 5.47047 18.9191 4.61845C18.9191 4.59006 18.9197 4.56182 18.9211 4.53375C18.2905 4.65777 17.5039 4.95485 16.5976 5.4303C16.1641 5.6577 15.7099 5.92237 15.2401 6.22182ZM3.39823 3.53935C2.80267 3.53935 2.31987 4.02248 2.31987 4.61845C2.31987 5.21442 2.80267 5.69755 3.39823 5.69755C3.99379 5.69755 4.47659 5.21442 4.47659 4.61845C4.47659 4.02248 3.99379 3.53935 3.39823 3.53935ZM12.6443 16.6602C12.453 16.8301 12.262 16.9961 12.0717 17.158C11.8795 16.9944 11.6866 16.8267 11.4933 16.655C11.7429 16.6597 11.9944 16.6621 12.2478 16.6621C12.3805 16.6621 12.5127 16.6615 12.6443 16.6602ZM17.2341 12.8729C17.923 13.711 18.5346 14.5358 19.0576 15.3261C19.6507 15.1982 20.2028 15.0542 20.7071 14.8967C21.7787 14.562 22.5967 14.1774 23.1322 13.782C23.681 13.3767 23.8204 13.0494 23.8204 12.8365C23.8204 12.6236 23.681 12.2963 23.1322 11.891C22.5967 11.4955 21.7787 11.111 20.7071 10.7763C20.2147 10.6225 19.6767 10.4816 19.0996 10.356C18.5674 11.1656 17.9416 12.0122 17.2341 12.8729ZM11.5771 9.01649C11.7424 8.87059 11.9073 8.72763 12.0717 8.58771C12.2345 8.72622 12.3978 8.86771 12.5614 9.01208C12.4572 9.01126 12.3526 9.01085 12.2478 9.01085C12.0228 9.01085 11.7992 9.01275 11.5771 9.01649ZM6.90938 12.8729C6.22199 12.0367 5.61166 11.2137 5.08944 10.425C4.62743 10.5325 4.19261 10.65 3.78846 10.7763C2.71691 11.111 1.89888 11.4955 1.36339 11.891C0.814571 12.2963 0.675145 12.6236 0.675145 12.8365C0.675145 13.0494 0.814571 13.3767 1.36339 13.782C1.89888 14.1774 2.71691 14.562 3.78846 14.8967C4.2048 15.0267 4.65369 15.1475 5.13131 15.2577C5.64419 14.4882 6.24028 13.6868 6.90938 12.8729ZM19.5942 4.61845C19.5942 4.02248 20.077 3.53935 20.6726 3.53935C21.2681 3.53935 21.7509 4.02248 21.7509 4.61845C21.7509 5.21442 21.2681 5.69755 20.6726 5.69755C20.077 5.69755 19.5942 5.21442 19.5942 4.61845ZM12.0354 23.376C11.4398 23.376 10.957 23.8591 10.957 24.4551C10.957 25.0511 11.4398 25.5342 12.0354 25.5342C12.631 25.5342 13.1138 25.0511 13.1138 24.4551C13.1138 23.8591 12.631 23.376 12.0354 23.376Z" fill="#303030"/>
</svg>
