<svg width="263" height="77" viewBox="0 0 263 77" fill="none" xmlns="http://www.w3.org/2000/svg">
<path fill-rule="evenodd" clip-rule="evenodd" d="M31.15 1.9V3.9V10.75V12.75H29.15H21.85V39V41H19.85H11.3H9.3V39V12.75H2H3.03984e-06V10.75V3.9V1.9H2H29.15H31.15ZM9.3 10.75H11.3V12.75V37V39H13.3H17.85H19.85V37V12.75V10.75H21.85H27.15H29.15V8.75V5.9V3.9H27.15H4H2V5.9V8.75V10.75H4H9.3ZM61.1176 29.8963L61.0292 30.2434C60.4883 32.3682 59.5004 34.2853 58.0804 35.9769C56.6753 37.6909 54.9092 39.0205 52.8186 39.9707C50.6945 40.9362 48.3573 41.4 45.841 41.4C42.8146 41.4 40.044 40.7515 37.5814 39.4047C35.1091 38.0527 33.1714 36.1106 31.7914 33.619C30.4011 31.1087 29.741 28.2308 29.741 25.05C29.741 21.8781 30.3807 19.0078 31.7301 16.5018L31.7357 16.4914L31.7414 16.481C33.1214 13.9894 35.0591 12.0473 37.5314 10.6953C39.9975 9.34661 42.7858 8.7 45.841 8.7C48.8285 8.7 51.5625 9.3294 53.9909 10.64C56.4257 11.954 58.333 13.8418 59.6834 16.268C60.3428 17.4242 60.8388 18.6598 61.1784 19.9678C61.5024 18.7472 61.9546 17.5901 62.5406 16.5018L62.5462 16.4914L62.552 16.481C63.9274 13.9975 65.8425 12.056 68.2803 10.7017L68.2919 10.6952C70.7545 9.34852 73.5252 8.7 76.5516 8.7C80.4136 8.7 83.7866 9.71827 86.5319 11.8732C89.3169 14.0328 91.0864 17.05 91.9049 20.7703L92.4394 23.2H89.9516H80.8516H79.4451L78.9694 21.8764C78.6897 21.0982 78.338 20.6694 77.9964 20.4238C77.6597 20.1816 77.17 20 76.4016 20C75.4518 20 74.7959 20.3307 74.2464 21.0569L74.2384 21.0674L74.2303 21.0779C73.6753 21.7914 73.2516 23.0191 73.2516 25.05C73.2516 27.0664 73.6693 28.3241 74.2385 29.0826C74.778 29.7712 75.435 30.1 76.4016 30.1C77.17 30.1 77.6597 29.9184 77.9964 29.6762C78.338 29.4306 78.6897 29.0018 78.9694 28.2236L79.4451 26.9H80.8516H89.9516H92.4503L91.903 29.3381C91.0809 33.0001 89.3076 35.9875 86.5401 38.1703C83.7688 40.3562 80.3969 41.4 76.5516 41.4C73.5252 41.4 70.7545 40.7515 68.2919 39.4047L68.2803 39.3984C65.8425 38.044 63.9274 36.1025 62.552 33.619L62.5462 33.6086L62.5406 33.5982C61.917 32.44 61.4449 31.204 61.1176 29.8963ZM72.6516 30.3C71.7182 29.0667 71.2516 27.3167 71.2516 25.05C71.2516 22.7833 71.7182 21.05 72.6516 19.85C73.5849 18.6167 74.8349 18 76.4016 18C78.6016 18 80.0849 19.0667 80.8516 21.2H87.8975H89.9516C89.7976 20.5003 89.6077 19.8336 89.3818 19.2C88.5315 16.8152 87.1714 14.8985 85.3016 13.45C82.9682 11.6167 80.0516 10.7 76.5516 10.7C73.8182 10.7 71.3849 11.2833 69.2516 12.45C67.1516 13.6167 65.5016 15.2833 64.3016 17.45C63.1349 19.6167 62.5516 22.15 62.5516 25.05C62.5516 27.95 63.1349 30.4833 64.3016 32.65C65.5016 34.8167 67.1516 36.4833 69.2516 37.65C71.3849 38.8167 73.8182 39.4 76.5516 39.4C80.0182 39.4 82.9349 38.4667 85.3016 36.6C87.162 35.1326 88.5178 33.2326 89.3689 30.9C89.6005 30.2654 89.7947 29.5987 89.9516 28.9H87.8951H80.8516C80.0849 31.0333 78.6016 32.1 76.4016 32.1C74.8349 32.1 73.5849 31.5 72.6516 30.3ZM57.941 17.25C56.7744 15.15 55.141 13.5333 53.041 12.4C50.941 11.2667 48.541 10.7 45.841 10.7C43.0744 10.7 40.6244 11.2833 38.491 12.45C36.3577 13.6167 34.691 15.2833 33.491 17.45C32.3244 19.6167 31.741 22.15 31.741 25.05C31.741 27.95 32.341 30.4833 33.541 32.65C34.741 34.8167 36.4077 36.4833 38.541 37.65C40.6744 38.8167 43.1077 39.4 45.841 39.4C48.1077 39.4 50.1577 38.9833 51.991 38.15C53.8244 37.3167 55.341 36.1667 56.541 34.7C57.3083 33.7876 57.9271 32.8043 58.3977 31.75C58.6835 31.1095 58.9147 30.4429 59.091 29.75H57.0147H49.991C49.1577 31.55 47.6744 32.45 45.541 32.45C44.1077 32.45 42.891 32 41.891 31.1C41.3367 30.5648 40.9195 29.8982 40.6392 29.1C40.4306 28.5061 40.2979 27.8395 40.241 27.1H42.2484H59.591C59.691 26.2333 59.741 25.4 59.741 24.6C59.741 21.8 59.141 19.35 57.941 17.25ZM42.8351 29.1C42.9628 29.3107 43.1048 29.4877 43.256 29.6375C43.858 30.1686 44.5809 30.45 45.541 30.45C46.3256 30.45 46.8518 30.2861 47.2161 30.0651C47.5312 29.8739 47.8273 29.5786 48.0817 29.1H42.8351ZM50.6052 20.35C50.8624 20.9395 50.991 21.6062 50.991 22.35H48.991H42.3213H40.291C40.4052 21.5995 40.6073 20.9328 40.8972 20.35C41.1996 19.7421 41.5975 19.2254 42.091 18.8C43.091 17.9667 44.3077 17.55 45.741 17.55C47.241 17.55 48.491 17.9833 49.491 18.85C49.9839 19.2771 50.3553 19.7771 50.6052 20.35ZM43.3846 20.3255C43.9859 19.8294 44.7324 19.55 45.741 19.55C46.8202 19.55 47.582 19.8475 48.168 20.35H43.3569L43.3846 20.3255ZM124.275 41H124.176V45.904H132.24C134.256 45.904 135.792 45.472 136.848 44.608C137.952 43.696 138.504 42.376 138.504 40.648C138.504 38.92 137.952 37.6 136.848 36.688C135.792 35.776 134.256 35.32 132.24 35.32H124.275V39V41ZM111.775 41H111.864V76H135.408C140.688 76 144.792 74.776 147.72 72.328C150.696 69.832 152.184 66.472 152.184 62.248C152.184 59.32 151.296 56.728 149.52 54.472C147.744 52.168 145.392 50.704 142.464 50.08C145.056 49.312 147.12 47.944 148.656 45.976C150.24 44.008 151.032 41.536 151.032 38.56C151.032 34.528 149.568 31.336 146.64 28.984C143.76 26.632 139.752 25.456 134.616 25.456H124.275V22.7C124.275 18.6545 123.213 15.2191 120.852 12.6514C118.495 10.0543 115.367 8.8 111.675 8.8C109.54 8.8 107.551 9.22111 105.747 10.1032C105.517 10.2153 105.294 10.3328 105.075 10.4558V2V0H103.075H94.525H92.525V2V39V41H94.525H103.075H105.075V39V23.85C105.075 22.3244 105.464 21.4233 105.986 20.8663C106.515 20.3008 107.252 19.95 108.425 19.95C109.598 19.95 110.335 20.3008 110.864 20.8663C111.386 21.4233 111.775 22.3244 111.775 23.85V39V41ZM113.775 25.456H122.275V22.7C122.275 19 121.308 16.1 119.375 14C117.442 11.8667 114.875 10.8 111.675 10.8C109.808 10.8 108.125 11.1667 106.625 11.9C106.064 12.1742 105.547 12.4834 105.075 12.8276C104.284 13.4038 103.618 14.0779 103.075 14.85V11.8716V4V2H101.075H96.525H94.525V4V37V39H96.525H101.075H103.075V37V23.85C103.075 21.9833 103.558 20.5333 104.525 19.5C105.492 18.4667 106.792 17.95 108.425 17.95C110.058 17.95 111.358 18.4667 112.325 19.5C113.292 20.5333 113.775 21.9833 113.775 23.85V25.456ZM133.248 66.064C135.312 66.064 136.896 65.608 138 64.696C139.152 63.736 139.728 62.368 139.728 60.592C139.728 58.816 139.128 57.424 137.928 56.416C136.776 55.408 135.168 54.904 133.104 54.904H124.176V66.064H133.248ZM165.517 31.648C163.357 31.648 161.581 31.024 160.189 29.776C158.845 28.48 158.173 26.896 158.173 25.024C158.173 23.104 158.845 21.52 160.189 20.272C161.581 18.976 163.357 18.328 165.517 18.328C167.629 18.328 169.357 18.976 170.701 20.272C172.093 21.52 172.789 23.104 172.789 25.024C172.789 26.896 172.093 28.48 170.701 29.776C169.357 31.024 167.629 31.648 165.517 31.648ZM171.637 35.824V76H159.325V35.824H171.637ZM178.111 55.84C178.111 51.712 178.879 48.088 180.415 44.968C181.999 41.848 184.135 39.448 186.823 37.768C189.511 36.088 192.511 35.248 195.823 35.248C198.655 35.248 201.127 35.824 203.239 36.976C205.399 38.128 207.055 39.64 208.207 41.512V35.824H220.519V76H208.207V70.312C207.007 72.184 205.327 73.696 203.167 74.848C201.055 76 198.583 76.576 195.751 76.576C192.487 76.576 189.511 75.736 186.823 74.056C184.135 72.328 181.999 69.904 180.415 66.784C178.879 63.616 178.111 59.968 178.111 55.84ZM208.207 55.912C208.207 52.84 207.343 50.416 205.615 48.64C203.935 46.864 201.871 45.976 199.423 45.976C196.975 45.976 194.887 46.864 193.159 48.64C191.479 50.368 190.639 52.768 190.639 55.84C190.639 58.912 191.479 61.36 193.159 63.184C194.887 64.96 196.975 65.848 199.423 65.848C201.871 65.848 203.935 64.96 205.615 63.184C207.343 61.408 208.207 58.984 208.207 55.912ZM245.771 76.576C242.266 76.576 239.146 75.976 236.411 74.776C233.674 73.576 231.514 71.944 229.93 69.88C228.346 67.768 227.458 65.416 227.266 62.824H239.435C239.579 64.216 240.227 65.344 241.379 66.208C242.531 67.072 243.947 67.504 245.626 67.504C247.163 67.504 248.339 67.216 249.155 66.64C250.019 66.016 250.451 65.224 250.451 64.264C250.451 63.112 249.851 62.272 248.65 61.744C247.451 61.168 245.507 60.544 242.818 59.872C239.939 59.2 237.538 58.504 235.618 57.784C233.699 57.016 232.042 55.84 230.65 54.256C229.258 52.624 228.562 50.44 228.562 47.704C228.562 45.4 229.187 43.312 230.435 41.44C231.73 39.52 233.603 38.008 236.051 36.904C238.547 35.8 241.499 35.248 244.907 35.248C249.947 35.248 253.907 36.496 256.786 38.992C259.715 41.488 261.395 44.8 261.827 48.928H250.451C250.258 47.536 249.635 46.432 248.579 45.616C247.57 44.8 246.227 44.392 244.547 44.392C243.107 44.392 242.003 44.68 241.234 45.256C240.467 45.784 240.083 46.528 240.083 47.488C240.083 48.64 240.682 49.504 241.883 50.08C243.131 50.656 245.051 51.232 247.643 51.808C250.618 52.576 253.042 53.344 254.915 54.112C256.786 54.832 258.419 56.032 259.811 57.712C261.25 59.344 261.995 61.552 262.043 64.336C262.043 66.688 261.371 68.8 260.026 70.672C258.73 72.496 256.835 73.936 254.339 74.992C251.891 76.048 249.035 76.576 245.771 76.576ZM46.1 70.14C46.16 70.1 45.85 70.35 45.17 70.89V74.7H60.23V70.53H52.13C54.39 68.79 56.25 67.01 57.71 65.19C59.17 63.35 59.9 61.36 59.9 59.22C59.9 57.26 59.29 55.67 58.07 54.45C56.87 53.23 55.08 52.62 52.7 52.62C51.32 52.62 50.06 52.89 48.92 53.43C47.8 53.97 46.89 54.81 46.19 55.95C45.51 57.09 45.15 58.51 45.11 60.21H50.06C50.06 59.17 50.27 58.37 50.69 57.81C51.13 57.23 51.73 56.94 52.49 56.94C53.25 56.94 53.82 57.17 54.2 57.63C54.58 58.09 54.77 58.73 54.77 59.55C54.77 60.63 54.38 61.74 53.6 62.88C52.82 64.02 51.86 65.11 50.72 66.15C49.6 67.19 48.06 68.52 46.1 70.14ZM64.4687 55.62C63.1487 57.6 62.4887 60.31 62.4887 63.75C62.4887 67.23 63.1487 69.96 64.4687 71.94C65.8087 73.92 67.9587 74.91 70.9187 74.91C73.8787 74.91 76.0187 73.92 77.3387 71.94C78.6787 69.96 79.3487 67.23 79.3487 63.75C79.3487 60.31 78.6787 57.6 77.3387 55.62C76.0187 53.64 73.8787 52.65 70.9187 52.65C67.9587 52.65 65.8087 53.64 64.4687 55.62ZM73.6487 59.1C74.0887 60.18 74.3087 61.73 74.3087 63.75C74.3087 65.11 74.2287 66.24 74.0687 67.14C73.9087 68.02 73.5787 68.74 73.0787 69.3C72.5987 69.84 71.8787 70.11 70.9187 70.11C69.9587 70.11 69.2287 69.84 68.7287 69.3C68.2487 68.74 67.9287 68.02 67.7687 67.14C67.6087 66.24 67.5287 65.11 67.5287 63.75C67.5287 61.73 67.7487 60.18 68.1887 59.1C68.6287 58 69.5387 57.45 70.9187 57.45C72.2987 57.45 73.2087 58 73.6487 59.1ZM82.809 70.14C82.869 70.1 82.559 70.35 81.879 70.89V74.7H96.939V70.53H88.839C91.099 68.79 92.959 67.01 94.419 65.19C95.879 63.35 96.609 61.36 96.609 59.22C96.609 57.26 95.999 55.67 94.779 54.45C93.579 53.23 91.789 52.62 89.409 52.62C88.029 52.62 86.769 52.89 85.629 53.43C84.509 53.97 83.599 54.81 82.899 55.95C82.219 57.09 81.859 58.51 81.819 60.21H86.769C86.769 59.17 86.979 58.37 87.399 57.81C87.839 57.23 88.439 56.94 89.199 56.94C89.959 56.94 90.529 57.17 90.909 57.63C91.289 58.09 91.479 58.73 91.479 59.55C91.479 60.63 91.089 61.74 90.309 62.88C89.529 64.02 88.569 65.11 87.429 66.15C86.309 67.19 84.769 68.52 82.809 70.14ZM98.6577 53.1V57.87H101.628V75H106.968V53.1H98.6577Z" fill="url(#paint0_linear_155_147)"/>
<defs>
<linearGradient id="paint0_linear_155_147" x1="-24.3994" y1="38.0004" x2="291.776" y2="38.0004" gradientUnits="userSpaceOnUse">
<stop stop-color="#302A71"/>
<stop offset="1" stop-color="#5BB2BF"/>
</linearGradient>
</defs>
</svg>
